<svg width="33" height="28" fill="none" xmlns="http://www.w3.org/2000/svg"><path fill-rule="evenodd" clip-rule="evenodd" d="M2.58 11.683l17.495-7.536C28.406.682 30.138.08 31.265.06c.249-.004.804.057 1.163.35.304.245.387.578.427.811.04.234.09.766.05 1.181-.451 4.744-2.405 16.256-3.398 21.569-.421 2.248-1.248 3.002-2.05 3.076-1.743.16-3.066-1.152-4.753-2.258l-6.695-4.497c-2.962-1.952-1.042-3.025.646-4.778.442-.459 8.118-7.44 8.266-8.074.018-.08.036-.374-.14-.53-.175-.156-.434-.102-.62-.06-.265.06-4.483 2.848-12.655 8.363-1.197.823-2.281 1.223-3.253 1.202-1.071-.023-3.132-.605-4.663-1.103C1.71 14.7.218 14.378.348 13.34c.067-.54.811-1.093 2.232-1.657z" fill="#fff"/></svg>