<svg width="34" height="33" fill="none" xmlns="http://www.w3.org/2000/svg"><path d="M24.813 19.627c-.375-.188-2.344-1.313-2.72-1.407-.374-.187-.655-.187-.937.188-.281.375-1.125 1.312-1.312 1.5-.282.281-.469.281-.844.093-.375-.187-1.688-.656-3.188-2.156-1.124-1.125-1.968-2.437-2.156-2.906-.187-.375 0-.656.188-.844.187-.187.375-.469.656-.656.281-.188.281-.375.469-.656.187-.281.094-.469 0-.75s-.844-2.25-1.125-3.094c-.281-.844-.656-.656-.844-.75-.281 0-.469-.094-.75-.094a1.73 1.73 0 00-1.125.469c-.375.375-1.5 1.312-1.5 3.281s1.313 4.031 1.5 4.219c.188.281 2.625 4.594 6.656 6.375 4.032 1.781 4.032 1.219 4.782 1.219s2.437-.938 2.812-1.782c.375-.937.375-1.78.281-1.875-.187 0-.468-.093-.843-.375zm-7.5 9.656c-2.625 0-5.063-.75-7.22-2.157L5.032 28.72l1.688-4.875c-1.594-2.25-2.532-4.968-2.532-7.781a13.203 13.203 0 0113.22-13.219c7.312 0 13.124 5.906 13.124 13.219a13.203 13.203 0 01-13.218 13.219zm0-29.063C8.592.22 1.469 7.345 1.469 16.064c0 2.906.75 5.719 2.25 8.156L.813 32.752l8.812-2.813c2.344 1.313 4.969 1.969 7.688 1.969 8.718 0 15.843-7.125 15.843-15.844S26.125.22 17.313.22z" fill="#fff"/></svg>